# xmcd
#
# Track frame offsets:
#	150
#	22047
#	41813
#	51422
#	77231
#	96032
#	120503
#	127673
#	162772
#	180954
#	201500
#	225425
#	253524
#
# Disc length: 3420 seconds
# Revision: 0
# Processed by: cddbd v1.5.2PL0 Copyright (c) Steve Scherf et al.
# Submitted via: dBpowerAMP V12.0
#
DISCID=a10d5a0d
DTITLE=David Maxwell - Blues And Other Colors
DYEAR=2012
DGENRE=Blues
TTITLE0=Movin' On
TTITLE1=Tangier Nights
TTITLE2=Interlude A
TTITLE3=Big Sky
TTITLE4=Cryin' The Blues
TTITLE5=Heart of Darkness
TTITLE6=Interlude B
TTITLE7=Harry's Raga
TTITLE8=Afternoon in Casa
TTITLE9=I'm Rollin' And Tumblin'
TTITLE10=Mombai Blues
TTITLE11=Blue Sky
TTITLE12=Interlude C
EXTD=
EXTT0=
EXTT1=
EXTT2=
EXTT3=
EXTT4=
EXTT5=
EXTT6=
EXTT7=
EXTT8=
EXTT9=
EXTT10=
EXTT11=
EXTT12=
PLAYORDER=
